<svg xmlns="http://www.w3.org/2000/svg" width="1024" height="1024" viewBox="0 0 1024 1024" version="1.1">
	<!-- Black background with rounded corners -->
	<rect width="1024" height="1024" rx="240" ry="240" fill="#000000"/>
	
	<path d="M 329.500 262.575 C 297.882 267.428, 271.492 284.300, 254.323 310.640 C 235.880 338.934, 224.239 381.574, 222.350 427.750 L 221.686 444 511.843 444 L 802 444 801.997 434.250 C 801.987 406.898, 796.418 373.854, 787.447 347.922 C 769.847 297.045, 739.536 269.621, 693 262.471 C 679.263 260.361, 343.303 260.457, 329.500 262.575 M 351 285.492 C 312.724 293.293, 289.364 321.605, 280.494 370.947 C 278.109 384.208, 276.010 403.284, 276.003 411.750 L 276 416 512 416 L 748 416 748 407.674 C 748 395.727, 746.244 379.355, 743.470 365.441 C 734.520 320.548, 715.898 296.313, 683 286.744 L 675.500 284.562 516.500 284.364 C 387.844 284.205, 356.260 284.420, 351 285.492 M 221 614 L 221 763 512 763 L 803 763 803 614 L 803 465 690.477 465 L 577.954 465 578.227 482.750 L 578.500 500.500 664.750 500.756 L 751 501.011 751 610.506 L 751 720 511.500 720 L 272 720 272 610.500 L 272 501 274.250 500.915 C 275.488 500.868, 314.525 500.756, 361 500.665 L 445.500 500.500 445.773 482.750 L 446.046 465 333.523 465 L 221 465 221 614 M 467 516.976 L 467 569 512 569 L 557 569 557 517 L 557 465 540 465 L 523 465 523 500.534 L 523 536.068 512.250 535.784 L 501.500 535.500 501.405 500.500 L 501.311 465.500 484.155 465.226 L 467 464.953 467 516.976" stroke="none" fill="#FFFFFF" fill-rule="evenodd"/>
</svg>